<svg width="258" height="295" viewBox="0 0 258 295" fill="none" xmlns="http://www.w3.org/2000/svg">
<path d="M63.395 61.03C54.715 61.03 48.1533 62.9417 43.71 66.765C39.2667 70.485 37.045 76.1167 37.045 83.66V90.325H81.685V110.475H37.045V150H11.935V83.815C11.935 69.865 16.275 59.015 24.955 51.265C33.7383 43.515 45.9833 39.64 61.69 39.64C67.89 39.64 73.7283 40.3117 79.205 41.655C84.6817 42.895 89.435 44.755 93.465 47.235L85.715 67.075C79.515 63.045 72.075 61.03 63.395 61.03Z" fill="#23D2AA"/>
<path d="M158.36 80.06H178.64V150H158.36V80.06ZM168.5 70.31C164.773 70.31 161.74 69.2267 159.4 67.06C157.06 64.8933 155.89 62.2067 155.89 59C155.89 55.7933 157.06 53.1067 159.4 50.94C161.74 48.7733 164.773 47.69 168.5 47.69C172.227 47.69 175.26 48.73 177.6 50.81C179.94 52.89 181.11 55.49 181.11 58.61C181.11 61.99 179.94 64.8067 177.6 67.06C175.26 69.2267 172.227 70.31 168.5 70.31Z" fill="#23D2AA"/>
<path d="M11.952 158.2H57.744C68.688 158.2 78.336 160.312 86.688 164.536C95.136 168.664 101.664 174.52 106.272 182.104C110.976 189.688 113.328 198.52 113.328 208.6C113.328 218.68 110.976 227.512 106.272 235.096C101.664 242.68 95.136 248.584 86.688 252.808C78.336 256.936 68.688 259 57.744 259H11.952V158.2ZM56.592 239.848C66.672 239.848 74.688 237.064 80.64 231.496C86.688 225.832 89.712 218.2 89.712 208.6C89.712 199 86.688 191.416 80.64 185.848C74.688 180.184 66.672 177.352 56.592 177.352H35.28V239.848H56.592ZM166.201 260.152C158.041 260.152 150.697 258.472 144.169 255.112C137.737 251.656 132.697 246.904 129.049 240.856C125.401 234.808 123.577 227.944 123.577 220.264C123.577 212.584 125.401 205.72 129.049 199.672C132.697 193.624 137.737 188.92 144.169 185.56C150.697 182.104 158.041 180.376 166.201 180.376C174.361 180.376 181.657 182.104 188.089 185.56C194.521 188.92 199.561 193.624 203.209 199.672C206.857 205.72 208.681 212.584 208.681 220.264C208.681 227.944 206.857 234.808 203.209 240.856C199.561 246.904 194.521 251.656 188.089 255.112C181.657 258.472 174.361 260.152 166.201 260.152ZM166.201 241.72C171.961 241.72 176.665 239.8 180.313 235.96C184.057 232.024 185.929 226.792 185.929 220.264C185.929 213.736 184.057 208.552 180.313 204.712C176.665 200.776 171.961 198.808 166.201 198.808C160.441 198.808 155.689 200.776 151.945 204.712C148.201 208.552 146.329 213.736 146.329 220.264C146.329 226.792 148.201 232.024 151.945 235.96C155.689 239.8 160.441 241.72 166.201 241.72ZM231.208 260.152C227.272 260.152 223.96 258.808 221.272 256.12C218.584 253.432 217.24 250.072 217.24 246.04C217.24 241.912 218.584 238.6 221.272 236.104C223.96 233.512 227.272 232.216 231.208 232.216C235.144 232.216 238.456 233.512 241.144 236.104C243.832 238.6 245.176 241.912 245.176 246.04C245.176 250.072 243.832 253.432 241.144 256.12C238.456 258.808 235.144 260.152 231.208 260.152Z" fill="#23D2AA"/>
</svg>
